# xmcd
#
# Track frame offsets: 
#        150
#        25245
#        47050
#        61413
#        76595
#        106951
#        116460
#        135278
#        149923
#        168794
#        182024
#        209859
#        254718
#
# Disc length: 4397 seconds
#
# Revision: 0
# Processed by: cddbd v1.5.1PL0 Copyright (c) Steve Scherf et al.
# Submitted via: ExactAudioCopy v0.95a4
#
DISCID=b9112b0d
DTITLE=Hoztrio - Holztrio live
DYEAR=2004
DGENRE=Acoustic
TTITLE0=Lay down Sally
TTITLE1=The Boxer
TTITLE2=Weather with you
TTITLE3=Give a little bit
TTITLE4=Mrs. Robinson
TTITLE5=Manne's Gelaaber
TTITLE6=Hope of Deliverance
TTITLE7=Boat on the River
TTITLE8=Wish you were here
TTITLE9=Help
TTITLE10=Horse with no Name
TTITLE11=Radar Love
TTITLE12=Yesterday
EXTD=
EXTT0=
EXTT1=
EXTT2=
EXTT3=
EXTT4=
EXTT5=
EXTT6=
EXTT7=
EXTT8=
EXTT9=
EXTT10=
EXTT11=
EXTT12=
PLAYORDER=
